HIERARCHY
ROOT Hips
{
 OFFSET 0.000000 0.000000 0.000000
 CHANNELS 6 Xposition Yposition Zposition Yrotation Xrotation Zrotation
 JOINT Chest
 {
  OFFSET 0.000000 10.858100 0.003500
  CHANNELS 3 Yrotation Xrotation Zrotation
  JOINT Chest2
  {
   OFFSET 0.000000 12.033100 -0.006300
   CHANNELS 3 Yrotation Xrotation Zrotation
   JOINT Chest3
   {
    OFFSET 0.000000 10.873000 0.000000
    CHANNELS 3 Yrotation Xrotation Zrotation
    JOINT Chest4
    {
     OFFSET 0.000000 10.873100 0.000000
     CHANNELS 3 Yrotation Xrotation Zrotation
     JOINT Neck
     {
      OFFSET 0.000000 15.287100 0.000000
      CHANNELS 3 Yrotation Xrotation Zrotation
      JOINT Head
      {
       OFFSET 0.000000 10.117800 -0.015000
       CHANNELS 3 Yrotation Xrotation Zrotation
       End Site
       {
        OFFSET 0.000000 19.391900 -0.007800
       }
      }
     }
     JOINT RightCollar
     {
      OFFSET -3.308500 8.525800 0.000000
      CHANNELS 3 Yrotation Xrotation Zrotation
      JOINT RightShoulder
      {
       OFFSET -15.326500 0.000000 0.000000
       CHANNELS 3 Yrotation Xrotation Zrotation
       JOINT RightElbow
       {
        OFFSET -32.728200 0.000000 0.000000
        CHANNELS 3 Yrotation Xrotation Zrotation
        JOINT RightWrist
        {
         OFFSET -26.775900 0.000000 0.000000
         CHANNELS 3 Yrotation Xrotation Zrotation
         End Site
         {
          OFFSET -20.037400 0.000000 0.000000
         }
        }
       }
      }
     }
     JOINT LeftCollar
     {
      OFFSET 3.308500 8.525800 0.000000
      CHANNELS 3 Yrotation Xrotation Zrotation
      JOINT LeftShoulder
      {
       OFFSET 15.326500 0.000000 0.000000
       CHANNELS 3 Yrotation Xrotation Zrotation
       JOINT LeftElbow
       {
        OFFSET 32.728200 0.000000 0.000000
        CHANNELS 3 Yrotation Xrotation Zrotation
        JOINT LeftWrist
        {
         OFFSET 26.775900 0.000000 0.000000
         CHANNELS 3 Yrotation Xrotation Zrotation
         End Site
         {
          OFFSET 20.037400 0.000000 0.000000
         }
        }
       }
      }
     }
    }
   }
  }
 }
 JOINT RightHip
 {
  OFFSET -8.790400 -0.016900 -0.001700
  CHANNELS 3 Yrotation Xrotation Zrotation
  JOINT RightKnee
  {
   OFFSET 0.000000 -45.668200 0.001600
   CHANNELS 3 Yrotation Xrotation Zrotation
   JOINT RightAnkle
   {
    OFFSET 0.000000 -44.710400 0.002800
    CHANNELS 3 Yrotation Xrotation Zrotation
    JOINT RightToe
    {
     OFFSET 0.000000 -7.040800 15.874000
     CHANNELS 3 Yrotation Xrotation Zrotation
     End Site
     {
      OFFSET 0.000000 -1.632900 6.946300
     }
    }
   }
  }
 }
 JOINT LeftHip
 {
  OFFSET 8.790400 -0.016900 -0.001700
  CHANNELS 3 Yrotation Xrotation Zrotation
  JOINT LeftKnee
  {
   OFFSET 0.000000 -45.668200 0.001600
   CHANNELS 3 Yrotation Xrotation Zrotation
   JOINT LeftAnkle
   {
    OFFSET 0.000000 -44.710400 0.002800
    CHANNELS 3 Yrotation Xrotation Zrotation
    JOINT LeftToe
    {
     OFFSET 0.000000 -7.040800 15.874000
     CHANNELS 3 Yrotation Xrotation Zrotation
     End Site
     {
      OFFSET 0.000000 -1.632900 6.946300
     }
    }
   }
  }
 }
}
MOTION
Frames: 12
Frame Time: 0.004167
-434.289800 173.899400 -75.614200 -33.880912 27.935708 -25.768521 6.076010 8.090109 5.243741 2.601663 3.663605 2.218304 2.601703 3.663593 2.218109 1.937295 2.757312 1.647566 5.128735 7.884674 -2.463999 11.380760 -21.074612 -7.445318 8.264751 -1.626984 6.366169 1.824722 -26.723757 46.347244 42.135949 0.217804 9.474627 2.549630 -5.853591 -19.973128 -8.852790 -0.953915 -5.621768 -19.946589 -32.833012 -21.391941 -27.817064 -2.949406 -27.256220 -6.208246 -28.190266 37.007949 4.821876 -44.013488 -2.618931 4.086770 36.342608 7.287645 -2.760348 -2.401256 -7.554007 0.162753 -0.012877 0.868635 -3.224223 -57.235729 14.606376 19.953685 59.630994 -2.411311 -19.756293 -13.546001 6.367619 0.166613 0.039061 1.141057
-435.016800 173.721400 -76.162600 -33.866552 27.793875 -26.199722 6.015869 8.055157 5.372338 2.573149 3.649010 2.276747 2.573209 3.649116 2.276747 1.915730 2.746408 1.691690 5.239859 7.900810 -2.396408 11.564132 -21.040334 -7.364190 8.255929 -1.618611 6.360766 2.016837 -26.734989 46.235044 42.119538 0.380520 9.578343 2.703495 -5.707633 -19.958757 -8.846086 -0.832677 -5.545713 -19.831639 -32.814004 -21.464510 -27.529519 -2.624299 -27.300879 -6.277290 -28.182249 37.006851 5.218776 -43.575418 -2.870313 4.122173 36.008766 7.076404 -2.963169 -2.364113 -7.515368 0.159037 -0.017774 0.849900 -2.645521 -57.302999 14.179980 20.168265 59.804663 -2.454604 -19.959412 -13.465325 6.367434 0.162353 0.017610 1.135969
-435.741900 173.526800 -76.708400 -33.828381 27.658852 -26.617779 5.949110 8.019252 5.501353 2.541915 3.633970 2.335591 2.541870 3.634030 2.335484 1.891888 2.735389 1.736054 5.347831 7.913365 -2.332437 11.743190 -21.012093 -7.289512 8.264405 -1.602706 6.355995 2.186392 -26.712714 46.138435 42.132971 0.544746 9.648616 2.877140 -5.567632 -19.970461 -8.828939 -0.709545 -5.482361 -19.711885 -32.808503 -21.532621 -27.301463 -2.357873 -27.343482 -6.196353 -28.060723 36.896800 5.691715 -43.124251 -3.222018 4.070343 35.669249 6.863633 -3.133373 -2.234562 -7.410875 0.141471 -0.066362 0.813217 -1.966508 -57.374918 13.608098 20.407261 59.923020 -2.379813 -20.171669 -13.369636 6.334898 0.161953 0.012937 1.129472
-436.463800 173.315500 -77.250100 -33.766665 27.520305 -27.020000 5.880175 7.989360 5.630462 2.509440 3.621591 2.394490 2.509510 3.621521 2.394473 1.867288 2.726088 1.780459 5.449191 7.920765 -2.273436 11.912889 -20.993821 -7.222050 8.285446 -1.596483 6.352422 2.327931 -26.657334 46.061312 42.167661 0.717020 9.690513 3.073430 -5.430710 -20.005570 -8.807965 -0.580527 -5.426266 -19.593402 -32.796693 -21.622703 -27.170699 -2.080763 -27.335514 -5.999544 -27.876527 36.744004 6.162947 -42.628837 -3.620095 4.045362 35.279128 6.663680 -3.316373 -2.074736 -7.252828 0.129139 -0.097915 0.783340 -1.287915 -57.425340 13.011098 20.647558 60.042597 -2.268866 -20.382168 -13.333852 6.328480 0.164166 0.033758 1.096075
-437.182500 173.086400 -77.786500 -33.744971 27.355547 -27.429906 5.799018 7.963434 5.759339 2.471752 3.610684 2.453307 2.471598 3.610662 2.453357 1.838604 2.718114 1.824783 5.545059 7.927608 -2.220876 12.074608 -20.976099 -7.164622 8.307667 -1.559451 6.323676 2.445134 -26.619050 46.024286 42.252242 0.930809 9.774085 3.277262 -5.294574 -20.069500 -8.760674 -0.447864 -5.405838 -19.489698 -32.766017 -21.733827 -27.107621 -1.773253 -27.283751 -5.800396 -27.731354 36.636895 6.599790 -42.097214 -4.009870 4.065017 34.889518 6.553139 -3.458025 -1.979355 -7.023721 0.112236 -0.097549 0.692209 -0.705816 -57.464114 12.466983 20.768043 60.189405 -2.205387 -20.145191 -13.385318 6.023370 0.163935 -0.003299 1.144390
-437.898000 172.838600 -78.319200 -33.647728 27.232672 -27.801395 5.715728 7.931473 5.886450 2.433042 3.596855 2.511580 2.433069 3.596965 2.511675 1.809331 2.707798 1.868751 5.632884 7.931400 -2.172015 12.223038 -20.964972 -7.110830 8.319658 -1.517407 6.297456 2.577346 -26.565389 45.992829 42.322198 1.113241 9.800411 3.489601 -5.149373 -20.155110 -8.729229 -0.312072 -5.372649 -19.366820 -32.734543 -21.825065 -27.066817 -1.469304 -27.292726 -5.695782 -27.687343 36.621248 6.976664 -41.570060 -4.391394 4.105309 34.544425 6.463886 -3.605405 -1.954990 -6.928895 0.117948 -0.090216 0.707457 -0.072938 -57.518901 11.864990 20.829009 60.403894 -2.271801 -20.265044 -13.515960 6.073726 0.178575 0.071524 1.093504
-438.610700 172.572500 -78.850100 -33.530642 27.129899 -28.156315 5.629367 7.891889 6.010280 2.393132 3.579819 2.568466 2.393130 3.579840 2.568515 1.779192 2.694986 1.911783 5.711593 7.936050 -2.126049 12.354586 -20.952799 -7.058322 8.301644 -1.508778 6.259755 2.718661 -26.458026 45.979435 42.403289 1.280884 9.827531 3.702412 -4.994762 -20.266715 -8.696242 -0.163218 -5.339406 -19.260970 -32.721375 -21.858930 -26.967078 -1.219707 -27.398823 -5.698769 -27.695287 36.645958 7.316344 -41.065701 -4.761046 4.136674 34.264366 6.417636 -3.750511 -2.023358 -6.880417 0.126284 -0.061751 0.707531 0.577864 -57.587258 11.228530 20.861588 60.618187 -2.360388 -20.395829 -13.684096 6.168988 0.193886 0.143798 1.050293
-439.321800 172.289900 -79.379600 -33.400705 27.032327 -28.500752 5.542833 7.848895 6.131611 2.353380 3.560939 2.624369 2.353301 3.561036 2.624489 1.749198 2.680899 1.953904 5.782078 7.943836 -2.082084 12.470494 -20.935576 -7.005092 8.288332 -1.511215 6.238380 2.850229 -26.328238 45.955083 42.492000 1.446542 9.853676 3.909594 -4.829074 -20.390331 -8.662088 -0.007168 -5.303459 -19.179037 -32.709343 -21.862684 -26.830735 -1.043660 -27.538848 -5.696952 -27.678380 36.626407 7.549785 -40.566543 -5.068510 4.224820 34.068714 6.363791 -3.882980 -2.169090 -6.727660 0.121038 -0.046626 0.657890 1.209710 -57.659377 10.587523 21.045669 60.849581 -2.287263 -20.583124 -13.927008 6.189364 0.216733 0.216884 1.052381
-440.033700 171.993500 -79.907500 -33.263354 26.926453 -28.844936 5.462234 7.806255 6.252481 2.316214 3.542347 2.679868 2.316277 3.542381 2.679989 1.721136 2.666972 1.995897 5.844729 7.954603 -2.038284 12.570946 -20.913873 -6.947829 8.318438 -1.495785 6.258856 2.956512 -26.205875 45.881853 42.583627 1.600283 9.876782 4.110253 -4.665567 -20.510762 -8.631158 0.157913 -5.258425 -19.126437 -32.678773 -21.864052 -26.708519 -0.902774 -27.659762 -5.619410 -27.599501 36.551349 7.676153 -40.054487 -5.303141 4.382355 33.872791 6.264013 -3.980703 -2.377046 -6.514449 0.124049 -0.012519 0.623608 1.757147 -57.725298 10.035609 21.189022 61.114913 -2.273536 -20.752662 -14.279559 6.219092 0.246330 0.313340 1.050246
-440.748300 171.685900 -80.433800 -33.121728 26.804599 -29.193343 5.390371 7.765681 6.374938 2.282870 3.524718 2.735914 2.282899 3.524848 2.736032 1.695823 2.653831 2.038196 5.901943 7.968879 -1.993314 12.659293 -20.886343 -6.885149 8.316390 -1.483009 6.278832 3.078835 -26.072287 45.807392 42.677199 1.739486 9.910278 4.304358 -4.498301 -20.622184 -8.601400 0.324721 -5.204933 -19.098681 -32.598454 -21.896009 -26.636770 -0.742481 -27.719491 -5.483920 -27.504625 36.462176 7.799258 -39.526751 -5.557407 4.656000 33.755822 6.287034 -4.116311 -2.709435 -6.313633 0.128399 0.019562 0.598389 2.188262 -57.769586 9.629521 21.303412 61.406400 -2.318055 -20.914389 -14.583840 6.292385 0.249948 0.339459 1.009657
-441.466200 171.370200 -80.960300 -32.977711 26.660335 -29.547784 5.326496 7.731839 6.499957 2.253060 3.510377 2.792992 2.252984 3.510348 2.792888 1.673238 2.643177 2.081090 5.957219 7.984035 -1.947639 12.743158 -20.857614 -6.820060 8.323356 -1.478953 6.314905 3.187005 -25.930255 45.706578 42.769748 1.864246 9.964647 4.495256 -4.324577 -20.721693 -8.571089 0.500807 -5.137921 -19.081835 -32.484060 -21.953844 -26.608328 -0.559319 -27.739800 -5.364934 -27.473326 36.409837 7.878987 -39.018113 -5.738873 4.922571 33.785773 6.319795 -4.215176 -3.171412 -6.154404 0.134701 0.046556 0.588096 2.506813 -57.790271 9.358965 21.492573 61.623304 -2.370626 -21.074262 -14.723752 6.346422 0.237794 0.309948 0.975463
-442.188000 171.050300 -81.488800 -32.835670 26.478551 -29.913288 5.274656 7.713377 6.629844 2.228216 3.502822 2.851587 2.228063 3.502988 2.851619 1.654371 2.637584 2.125352 6.013032 7.996959 -1.902766 12.829048 -20.833039 -6.757075 8.316237 -1.478821 6.340073 3.305373 -25.789675 45.594527 42.859547 1.962108 10.037379 4.674602 -4.133221 -20.802956 -8.552786 0.683837 -5.066296 -19.059922 -32.355427 -21.993314 -26.568485 -0.383354 -27.786367 -5.345171 -27.528227 36.421399 7.852064 -38.547030 -5.775423 5.338273 33.964329 6.397770 -4.388610 -3.666930 -6.067885 0.132795 0.028725 0.599707 2.829525 -57.787233 9.119168 21.849161 61.812472 -2.267233 -21.300122 -14.782495 6.383171 0.224928 0.269464 0.961303
